<?xml version="1.0" standalone="no"?>
<!DOCTYPE svg PUBLIC "-//W3C//DTD SVG 20010904//EN"
 "http://www.w3.org/TR/2001/REC-SVG-20010904/DTD/svg10.dtd">
<svg version="1.0" xmlns="http://www.w3.org/2000/svg"
 width="45px" height="45" viewBox="0 0 512.000000 512.000000"
 preserveAspectRatio="xMidYMid meet">

<g transform="translate(0.000000,512.000000) scale(0.100000,-0.100000)"
fill="#fff" stroke="none">
<path d="M260 4811 c-75 -23 -146 -87 -179 -162 -21 -46 -21 -57 -21 -1576 0
-1696 -5 -1579 66 -1661 19 -23 60 -53 92 -69 l57 -28 932 -3 933 -2 0 -194 0
-194 -227 -4 c-214 -4 -232 -6 -294 -29 -96 -37 -154 -74 -218 -139 -95 -97
-161 -246 -161 -366 0 -93 -136 -84 1320 -84 1456 0 1320 -9 1320 84 0 121
-66 270 -163 367 -67 67 -120 101 -216 138 -62 23 -80 25 -293 29 l-228 4 0
194 0 194 933 2 932 3 57 28 c32 16 73 46 92 69 71 82 66 -35 66 1661 0 1519
0 1530 -21 1576 -24 55 -79 115 -134 144 l-40 22 -2290 2 c-1259 1 -2301 -2
-2315 -6z m4570 -111 c41 -11 94 -61 109 -103 8 -19 11 -418 11 -1268 l0
-1239 -2390 0 -2390 0 0 1240 c0 1031 2 1246 14 1273 17 41 65 85 102 97 42
12 4500 12 4544 0z m120 -2927 c0 -234 -8 -269 -71 -314 l-34 -24 -2285 0
-2285 0 -34 24 c-63 45 -71 80 -71 314 l0 207 2390 0 2390 0 0 -207z m-2090
-658 l0 -195 -300 0 -300 0 0 195 0 195 300 0 300 0 0 -195z m601 -332 c76
-28 132 -65 185 -121 52 -54 103 -151 111 -211 l6 -41 -1203 0 -1203 0 6 41
c12 94 103 225 194 282 54 33 120 58 178 67 28 4 415 7 860 6 799 -2 811 -2
866 -23z"/>
<path d="M3770 4362 c-18 -15 -46 -106 -151 -498 -71 -263 -128 -490 -127
-504 2 -14 14 -30 29 -39 24 -13 29 -13 51 1 21 14 39 73 152 494 70 264 129
487 132 496 5 18 -36 68 -54 68 -6 0 -20 -8 -32 -18z"/>
<path d="M716 4354 c-22 -21 -20 -50 4 -74 19 -19 33 -20 539 -20 459 0 521 2
535 16 19 18 21 65 4 82 -9 9 -143 12 -539 12 -466 0 -529 -2 -543 -16z"/>
<path d="M1925 4346 c-18 -27 -7 -69 20 -80 9 -3 112 -6 229 -6 194 0 214 2
229 18 19 21 21 45 7 73 -10 18 -24 19 -240 19 l-230 0 -15 -24z"/>
<path d="M3121 4023 c-176 -136 -191 -150 -191 -179 0 -29 15 -43 190 -178
196 -151 221 -164 254 -127 35 38 18 61 -132 177 -78 60 -147 115 -153 121 -7
7 31 41 118 108 161 124 183 144 183 170 0 27 -29 55 -57 55 -12 0 -107 -66
-212 -147z"/>
<path d="M3976 4154 c-9 -8 -16 -28 -16 -43 0 -24 20 -43 148 -141 81 -62 150
-116 155 -120 4 -4 -55 -54 -132 -113 -76 -58 -146 -113 -155 -122 -19 -19
-21 -66 -4 -83 29 -29 64 -12 229 114 90 70 176 138 192 152 43 40 36 64 -35
121 -203 161 -326 251 -345 251 -12 0 -29 -7 -37 -16z"/>
<path d="M716 3894 c-22 -21 -20 -50 4 -74 19 -19 33 -20 303 -20 262 0 285 1
300 18 20 22 22 63 5 80 -9 9 -90 12 -304 12 -253 0 -295 -2 -308 -16z"/>
<path d="M1456 3888 c-21 -30 -20 -44 4 -68 19 -19 33 -20 473 -20 427 0 455
1 470 18 19 21 21 45 7 73 -10 18 -26 19 -475 19 l-464 0 -15 -22z"/>
<path d="M716 3434 c-22 -21 -20 -50 4 -74 19 -19 33 -20 408 -20 364 0 390 1
405 18 19 21 21 45 7 73 -10 18 -25 19 -410 19 -349 0 -401 -2 -414 -16z"/>
<path d="M1677 3432 c-22 -25 -21 -48 3 -72 19 -19 33 -20 363 -20 320 0 345
1 360 18 19 21 21 45 7 73 -10 18 -25 19 -364 19 -329 0 -354 -1 -369 -18z"/>
<path d="M717 2972 c-22 -24 -21 -55 1 -75 16 -15 53 -17 314 -17 273 0 296 1
311 18 21 23 22 56 1 76 -13 14 -56 16 -313 16 -276 0 -299 -1 -314 -18z"/>
<path d="M1467 2972 c-21 -23 -21 -41 -1 -70 l15 -22 453 0 c426 0 454 1 469
18 21 23 22 56 1 76 -14 14 -70 16 -468 16 -426 0 -454 -1 -469 -18z"/>
<path d="M2948 2979 c-21 -12 -24 -69 -6 -87 9 -9 107 -12 378 -12 343 0 368
1 383 18 22 24 21 55 -1 75 -17 15 -57 17 -378 17 -225 0 -366 -4 -376 -11z"/>
<path d="M3816 2974 c-23 -22 -20 -71 3 -84 12 -6 124 -10 294 -10 253 0 275
1 290 18 22 24 21 55 -1 75 -16 15 -52 17 -295 17 -237 0 -278 -2 -291 -16z"/>
<path d="M717 2512 c-22 -24 -21 -55 1 -75 17 -15 72 -17 590 -17 559 0 572 0
592 20 24 24 25 38 4 68 l-15 22 -578 0 c-547 0 -579 -1 -594 -18z"/>
<path d="M2022 2518 c-20 -20 -15 -76 7 -88 11 -6 91 -10 189 -10 151 0 171 2
185 18 21 23 22 56 1 76 -13 13 -45 16 -193 16 -124 0 -181 -4 -189 -12z"/>
<path d="M2948 2519 c-21 -12 -24 -69 -6 -87 8 -8 66 -12 193 -12 164 0 184 2
198 18 21 23 21 41 1 70 -15 21 -20 22 -192 22 -102 0 -184 -5 -194 -11z"/>
<path d="M3456 2514 c-23 -22 -20 -71 3 -84 13 -6 180 -10 474 -10 427 0 455
1 470 18 22 24 21 55 -1 75 -17 15 -64 17 -475 17 -401 0 -457 -2 -471 -16z"/>
</g>
</svg>
